<svg xmlns="http://www.w3.org/2000/svg" xmlns:xlink="http://www.w3.org/1999/xlink" width="208" zoomAndPan="magnify" viewBox="0 0 156 22.5" height="30" preserveAspectRatio="xMidYMid meet" version="1.0"><defs><g/><clipPath id="cb38a16fd5"><path d="M 151 0 L 154.304688 0 L 154.304688 5 L 151 5 Z M 151 0 " clip-rule="nonzero"/></clipPath></defs><g clip-path="url(#cb38a16fd5)"><g fill="#9188cb" fill-opacity="1"><g transform="translate(151.479269, 6.40057)"><g><path d="M 1.957031 -2.152344 C 2.964844 -2.152344 3.796875 -2.972656 3.796875 -3.992188 C 3.796875 -5 2.964844 -5.832031 1.957031 -5.832031 C 0.945312 -5.832031 0.117188 -5 0.117188 -3.992188 C 0.117188 -2.972656 0.945312 -2.152344 1.957031 -2.152344 Z M 0.390625 -3.992188 C 0.390625 -4.851562 1.09375 -5.554688 1.957031 -5.554688 C 2.816406 -5.554688 3.523438 -4.851562 3.523438 -3.992188 C 3.523438 -3.128906 2.816406 -2.425781 1.957031 -2.425781 C 1.09375 -2.425781 0.390625 -3.128906 0.390625 -3.992188 Z M 1.261719 -3.066406 L 1.613281 -3.066406 L 1.613281 -3.851562 L 2.027344 -3.851562 L 2.332031 -3.066406 L 2.722656 -3.066406 L 2.363281 -3.90625 C 2.488281 -3.96875 2.699219 -4.039062 2.699219 -4.382812 C 2.699219 -4.945312 2.277344 -5.007812 1.910156 -5.007812 L 1.261719 -5.007812 Z M 1.613281 -4.671875 L 2.003906 -4.671875 C 2.214844 -4.671875 2.332031 -4.585938 2.332031 -4.414062 C 2.332031 -4.242188 2.199219 -4.164062 2.035156 -4.164062 L 1.613281 -4.164062 Z M 1.613281 -4.671875 "/></g></g></g></g><g fill="#9188cb" fill-opacity="0.4118"><g transform="translate(5.346405, 15.086308)"><g><path d="M 1.636719 -1.109375 C 1.636719 -0.40625 1.304688 -0.230469 1.074219 0 L 4.84375 0 C 4.597656 -0.230469 4.277344 -0.40625 4.277344 -1.109375 L 4.277344 -5.777344 L 9.421875 -5.777344 L 9.421875 -1.109375 C 9.421875 -0.40625 9.085938 -0.230469 8.855469 0 L 12.625 0 C 12.378906 -0.230469 12.0625 -0.40625 12.0625 -1.109375 L 12.0625 -11.746094 C 12.0625 -12.46875 12.359375 -12.625 12.625 -12.855469 L 8.855469 -12.855469 C 9.121094 -12.625 9.421875 -12.46875 9.421875 -11.746094 L 9.421875 -7.625 L 4.277344 -7.625 L 4.277344 -11.746094 C 4.277344 -12.46875 4.578125 -12.625 4.84375 -12.855469 L 1.074219 -12.855469 C 1.339844 -12.625 1.636719 -12.46875 1.636719 -11.746094 Z M 1.636719 -1.109375 "/></g></g></g><g fill="#9188cb" fill-opacity="0.4118"><g transform="translate(19.045934, 15.086308)"><g><path d="M 0.96875 -1.671875 C 0.582031 -0.667969 0.230469 -0.335938 -0.0898438 0 L 3.152344 0 C 3.027344 -0.125 2.710938 -0.300781 2.710938 -0.582031 C 2.710938 -0.863281 2.90625 -1.355469 3.027344 -1.691406 L 3.820312 -3.804688 L 8.558594 -3.804688 L 9.421875 -1.53125 C 9.542969 -1.199219 9.71875 -0.878906 9.71875 -0.527344 C 9.71875 -0.300781 9.4375 -0.105469 9.332031 0 L 13.207031 0 C 12.855469 -0.265625 12.609375 -0.511719 12.183594 -1.621094 L 7.890625 -12.855469 L 4.578125 -12.855469 C 4.789062 -12.660156 5.019531 -12.539062 5.019531 -12.289062 C 5.019531 -11.867188 4.773438 -11.375 4.632812 -11.023438 Z M 4.417969 -5.476562 L 6.179688 -10.195312 L 7.976562 -5.476562 Z M 4.417969 -5.476562 "/></g></g></g><g fill="#9188cb" fill-opacity="0.4118"><g transform="translate(32.093941, 15.086308)"><g><path d="M 1.515625 -5.230469 C 1.515625 -0.949219 3.097656 0.265625 6.691406 0.265625 C 10.707031 0.265625 11.515625 -1.867188 11.515625 -5.230469 L 11.515625 -11.746094 C 11.515625 -12.449219 11.832031 -12.625 12.078125 -12.855469 L 9.105469 -12.855469 C 9.332031 -12.644531 9.667969 -12.433594 9.667969 -11.746094 L 9.667969 -5.230469 C 9.667969 -3.328125 9.542969 -1.585938 6.9375 -1.585938 C 4.277344 -1.585938 4.15625 -3.082031 4.15625 -5.230469 L 4.15625 -11.746094 C 4.15625 -12.449219 4.472656 -12.625 4.71875 -12.855469 L 0.949219 -12.855469 C 1.214844 -12.625 1.515625 -12.433594 1.515625 -11.746094 Z M 1.515625 -5.230469 "/></g></g></g><g fill="#9188cb" fill-opacity="0.4118"><g transform="translate(45.141947, 15.086308)"><g><path d="M 1.65625 -1.109375 C 1.65625 -0.40625 1.320312 -0.230469 1.089844 0 L 4.066406 0 C 3.820312 -0.230469 3.503906 -0.40625 3.503906 -1.109375 L 3.503906 -9.578125 L 3.539062 -9.578125 L 10.390625 0 L 12.679688 0 L 12.679688 -11.746094 C 12.679688 -12.449219 12.996094 -12.625 13.242188 -12.855469 L 10.265625 -12.855469 C 10.511719 -12.609375 10.828125 -12.46875 10.828125 -11.746094 L 10.828125 -3.980469 L 10.792969 -3.980469 L 4.472656 -12.855469 L 1.089844 -12.855469 C 1.355469 -12.625 1.65625 -12.46875 1.65625 -11.746094 Z M 1.65625 -1.109375 "/></g></g></g><g fill="#9188cb" fill-opacity="0.4118"><g transform="translate(59.492987, 15.086308)"><g><path d="M 4.050781 -1.109375 C 4.050781 -0.40625 3.714844 -0.230469 3.488281 0 L 7.253906 0 C 7.007812 -0.230469 6.691406 -0.40625 6.691406 -1.109375 L 6.691406 -11.003906 L 9.226562 -11.003906 C 10.195312 -11.003906 10.214844 -10.496094 10.511719 -10.214844 L 10.511719 -12.855469 L 0.230469 -12.855469 L 0.230469 -10.214844 C 0.527344 -10.496094 0.546875 -11.003906 1.515625 -11.003906 L 4.050781 -11.003906 Z M 4.050781 -1.109375 "/></g></g></g><g fill="#9188cb" fill-opacity="0.4118"><g transform="translate(70.251867, 15.086308)"><g><path d="M 1.65625 -1.109375 C 1.65625 -0.386719 1.339844 -0.230469 1.089844 0 L 9.984375 0 L 9.984375 -2.464844 C 9.613281 -2.128906 9.667969 -1.847656 8.433594 -1.847656 L 4.296875 -1.847656 L 4.296875 -5.6875 L 7.851562 -5.6875 C 8.664062 -5.6875 8.769531 -5.546875 9.140625 -5.140625 L 9.140625 -8.082031 C 8.855469 -7.765625 8.875 -7.535156 7.851562 -7.535156 L 4.296875 -7.535156 L 4.296875 -11.003906 L 8.136719 -11.003906 C 9.367188 -11.003906 9.316406 -10.722656 9.683594 -10.390625 L 9.683594 -12.855469 L 1.089844 -12.855469 C 1.355469 -12.625 1.65625 -12.46875 1.65625 -11.746094 Z M 1.65625 -1.109375 "/></g></g></g><g fill="#9188cb" fill-opacity="0.4118"><g transform="translate(81.010747, 15.086308)"><g><path d="M 4.296875 -11.003906 C 6.636719 -11.003906 10.285156 -10.863281 10.285156 -6.425781 C 10.285156 -2.128906 6.621094 -1.847656 4.296875 -1.847656 Z M 1.65625 -1.109375 C 1.65625 -0.40625 1.355469 -0.210938 1.089844 0 L 4.824219 0 C 12.925781 0 12.925781 -5.105469 12.925781 -6.09375 C 12.925781 -10.742188 9.929688 -12.855469 4.824219 -12.855469 L 1.089844 -12.855469 C 1.355469 -12.625 1.65625 -12.46875 1.65625 -11.746094 Z M 1.65625 -1.109375 "/></g></g></g><g fill="#9188cb" fill-opacity="0.4118"><g transform="translate(94.710275, 15.086308)"><g><path d="M 1.636719 -1.109375 C 1.636719 -0.40625 1.304688 -0.230469 1.074219 0 L 4.84375 0 C 4.597656 -0.230469 4.277344 -0.40625 4.277344 -1.109375 L 4.277344 -5.195312 L 6.375 -5.195312 L 9.175781 0 L 12.574219 0 C 12.21875 -0.300781 11.921875 -0.492188 11.464844 -1.285156 L 8.890625 -5.757812 C 10.722656 -6.304688 11.621094 -7.960938 11.621094 -8.945312 C 11.621094 -11.902344 9.632812 -12.855469 5.777344 -12.855469 L 1.074219 -12.855469 C 1.339844 -12.625 1.636719 -12.46875 1.636719 -11.746094 Z M 4.277344 -7.042969 L 4.277344 -11.003906 L 5.828125 -11.003906 C 8.066406 -11.003906 8.980469 -10.355469 8.980469 -8.910156 C 8.980469 -7.660156 8.101562 -7.042969 5.882812 -7.042969 Z M 4.277344 -7.042969 "/></g></g></g><g fill="#9188cb" fill-opacity="0.4118"><g transform="translate(107.42371, 15.086308)"><g><path d="M 1.65625 -1.109375 C 1.65625 -0.386719 1.339844 -0.230469 1.089844 0 L 9.984375 0 L 9.984375 -2.464844 C 9.613281 -2.128906 9.667969 -1.847656 8.433594 -1.847656 L 4.296875 -1.847656 L 4.296875 -5.6875 L 7.851562 -5.6875 C 8.664062 -5.6875 8.769531 -5.546875 9.140625 -5.140625 L 9.140625 -8.082031 C 8.855469 -7.765625 8.875 -7.535156 7.851562 -7.535156 L 4.296875 -7.535156 L 4.296875 -11.003906 L 8.136719 -11.003906 C 9.367188 -11.003906 9.316406 -10.722656 9.683594 -10.390625 L 9.683594 -12.855469 L 1.089844 -12.855469 C 1.355469 -12.625 1.65625 -12.46875 1.65625 -11.746094 Z M 1.65625 -1.109375 "/></g></g></g><g fill="#9188cb" fill-opacity="0.4118"><g transform="translate(118.18259, 15.086308)"><g><path d="M 1.65625 -1.109375 C 1.65625 -0.386719 1.339844 -0.230469 1.089844 0 L 9.984375 0 L 9.984375 -2.464844 C 9.613281 -2.128906 9.667969 -1.847656 8.433594 -1.847656 L 4.296875 -1.847656 L 4.296875 -5.6875 L 7.851562 -5.6875 C 8.664062 -5.6875 8.769531 -5.546875 9.140625 -5.140625 L 9.140625 -8.082031 C 8.855469 -7.765625 8.875 -7.535156 7.851562 -7.535156 L 4.296875 -7.535156 L 4.296875 -11.003906 L 8.136719 -11.003906 C 9.367188 -11.003906 9.316406 -10.722656 9.683594 -10.390625 L 9.683594 -12.855469 L 1.089844 -12.855469 C 1.355469 -12.625 1.65625 -12.46875 1.65625 -11.746094 Z M 1.65625 -1.109375 "/></g></g></g><g fill="#9188cb" fill-opacity="0.4118"><g transform="translate(128.94147, 15.086308)"><g><path d="M 1.671875 -1.109375 C 1.671875 -0.40625 1.339844 -0.230469 1.109375 0 L 9.773438 0 L 9.773438 -2.414062 C 9.4375 -2.058594 9.4375 -1.847656 8.152344 -1.847656 L 4.3125 -1.847656 L 4.3125 -11.746094 C 4.3125 -12.46875 4.613281 -12.625 4.878906 -12.855469 L 1.109375 -12.855469 C 1.375 -12.625 1.671875 -12.46875 1.671875 -11.746094 Z M 1.671875 -1.109375 "/></g></g></g><g fill="#9188cb" fill-opacity="0.4118"><g transform="translate(138.731877, 15.086308)"><g><path d="M 0.949219 -0.230469 C 1.128906 -0.335938 1.234375 -0.632812 1.445312 -0.632812 C 1.8125 -0.632812 3.382812 0.265625 5.210938 0.265625 C 8.082031 0.265625 10.035156 -1.304688 10.035156 -3.699219 C 10.035156 -8.082031 3.382812 -6.972656 3.382812 -9.472656 C 3.382812 -10.601562 4.296875 -11.269531 5.476562 -11.269531 C 7.097656 -11.269531 8.628906 -10.070312 9.246094 -9.070312 L 9.246094 -12.714844 C 9.105469 -12.625 9.015625 -12.289062 8.75 -12.289062 C 8.242188 -12.289062 7.203125 -13.117188 5.421875 -13.117188 C 2.675781 -13.117188 0.738281 -11.535156 0.738281 -9.261719 C 0.738281 -4.703125 7.394531 -5.988281 7.394531 -3.273438 C 7.394531 -2.164062 6.445312 -1.585938 5.035156 -1.585938 C 2.90625 -1.585938 1.550781 -2.921875 0.949219 -3.785156 Z M 0.949219 -0.230469 "/></g></g></g><g fill="#9188cb" fill-opacity="1"><g transform="translate(4.568204, 14.308107)"><g><path d="M 1.636719 -1.109375 C 1.636719 -0.40625 1.304688 -0.230469 1.074219 0 L 4.84375 0 C 4.597656 -0.230469 4.277344 -0.40625 4.277344 -1.109375 L 4.277344 -5.777344 L 9.421875 -5.777344 L 9.421875 -1.109375 C 9.421875 -0.40625 9.085938 -0.230469 8.855469 0 L 12.625 0 C 12.378906 -0.230469 12.0625 -0.40625 12.0625 -1.109375 L 12.0625 -11.746094 C 12.0625 -12.46875 12.359375 -12.625 12.625 -12.855469 L 8.855469 -12.855469 C 9.121094 -12.625 9.421875 -12.46875 9.421875 -11.746094 L 9.421875 -7.625 L 4.277344 -7.625 L 4.277344 -11.746094 C 4.277344 -12.46875 4.578125 -12.625 4.84375 -12.855469 L 1.074219 -12.855469 C 1.339844 -12.625 1.636719 -12.46875 1.636719 -11.746094 Z M 1.636719 -1.109375 "/></g></g></g><g fill="#9188cb" fill-opacity="1"><g transform="translate(18.267732, 14.308107)"><g><path d="M 0.96875 -1.671875 C 0.582031 -0.667969 0.230469 -0.335938 -0.0898438 0 L 3.152344 0 C 3.027344 -0.125 2.710938 -0.300781 2.710938 -0.582031 C 2.710938 -0.863281 2.90625 -1.355469 3.027344 -1.691406 L 3.820312 -3.804688 L 8.558594 -3.804688 L 9.421875 -1.53125 C 9.542969 -1.199219 9.71875 -0.878906 9.71875 -0.527344 C 9.71875 -0.300781 9.4375 -0.105469 9.332031 0 L 13.207031 0 C 12.855469 -0.265625 12.609375 -0.511719 12.183594 -1.621094 L 7.890625 -12.855469 L 4.578125 -12.855469 C 4.789062 -12.660156 5.019531 -12.539062 5.019531 -12.289062 C 5.019531 -11.867188 4.773438 -11.375 4.632812 -11.023438 Z M 4.417969 -5.476562 L 6.179688 -10.195312 L 7.976562 -5.476562 Z M 4.417969 -5.476562 "/></g></g></g><g fill="#9188cb" fill-opacity="1"><g transform="translate(31.315739, 14.308107)"><g><path d="M 1.515625 -5.230469 C 1.515625 -0.949219 3.097656 0.265625 6.691406 0.265625 C 10.707031 0.265625 11.515625 -1.867188 11.515625 -5.230469 L 11.515625 -11.746094 C 11.515625 -12.449219 11.832031 -12.625 12.078125 -12.855469 L 9.105469 -12.855469 C 9.332031 -12.644531 9.667969 -12.433594 9.667969 -11.746094 L 9.667969 -5.230469 C 9.667969 -3.328125 9.542969 -1.585938 6.9375 -1.585938 C 4.277344 -1.585938 4.15625 -3.082031 4.15625 -5.230469 L 4.15625 -11.746094 C 4.15625 -12.449219 4.472656 -12.625 4.71875 -12.855469 L 0.949219 -12.855469 C 1.214844 -12.625 1.515625 -12.433594 1.515625 -11.746094 Z M 1.515625 -5.230469 "/></g></g></g><g fill="#9188cb" fill-opacity="1"><g transform="translate(44.363746, 14.308107)"><g><path d="M 1.65625 -1.109375 C 1.65625 -0.40625 1.320312 -0.230469 1.089844 0 L 4.066406 0 C 3.820312 -0.230469 3.503906 -0.40625 3.503906 -1.109375 L 3.503906 -9.578125 L 3.539062 -9.578125 L 10.390625 0 L 12.679688 0 L 12.679688 -11.746094 C 12.679688 -12.449219 12.996094 -12.625 13.242188 -12.855469 L 10.265625 -12.855469 C 10.511719 -12.609375 10.828125 -12.46875 10.828125 -11.746094 L 10.828125 -3.980469 L 10.792969 -3.980469 L 4.472656 -12.855469 L 1.089844 -12.855469 C 1.355469 -12.625 1.65625 -12.46875 1.65625 -11.746094 Z M 1.65625 -1.109375 "/></g></g></g><g fill="#9188cb" fill-opacity="1"><g transform="translate(58.714785, 14.308107)"><g><path d="M 4.050781 -1.109375 C 4.050781 -0.40625 3.714844 -0.230469 3.488281 0 L 7.253906 0 C 7.007812 -0.230469 6.691406 -0.40625 6.691406 -1.109375 L 6.691406 -11.003906 L 9.226562 -11.003906 C 10.195312 -11.003906 10.214844 -10.496094 10.511719 -10.214844 L 10.511719 -12.855469 L 0.230469 -12.855469 L 0.230469 -10.214844 C 0.527344 -10.496094 0.546875 -11.003906 1.515625 -11.003906 L 4.050781 -11.003906 Z M 4.050781 -1.109375 "/></g></g></g><g fill="#9188cb" fill-opacity="1"><g transform="translate(69.473665, 14.308107)"><g><path d="M 1.65625 -1.109375 C 1.65625 -0.386719 1.339844 -0.230469 1.089844 0 L 9.984375 0 L 9.984375 -2.464844 C 9.613281 -2.128906 9.667969 -1.847656 8.433594 -1.847656 L 4.296875 -1.847656 L 4.296875 -5.6875 L 7.851562 -5.6875 C 8.664062 -5.6875 8.769531 -5.546875 9.140625 -5.140625 L 9.140625 -8.082031 C 8.855469 -7.765625 8.875 -7.535156 7.851562 -7.535156 L 4.296875 -7.535156 L 4.296875 -11.003906 L 8.136719 -11.003906 C 9.367188 -11.003906 9.316406 -10.722656 9.683594 -10.390625 L 9.683594 -12.855469 L 1.089844 -12.855469 C 1.355469 -12.625 1.65625 -12.46875 1.65625 -11.746094 Z M 1.65625 -1.109375 "/></g></g></g><g fill="#9188cb" fill-opacity="1"><g transform="translate(80.232545, 14.308107)"><g><path d="M 4.296875 -11.003906 C 6.636719 -11.003906 10.285156 -10.863281 10.285156 -6.425781 C 10.285156 -2.128906 6.621094 -1.847656 4.296875 -1.847656 Z M 1.65625 -1.109375 C 1.65625 -0.40625 1.355469 -0.210938 1.089844 0 L 4.824219 0 C 12.925781 0 12.925781 -5.105469 12.925781 -6.09375 C 12.925781 -10.742188 9.929688 -12.855469 4.824219 -12.855469 L 1.089844 -12.855469 C 1.355469 -12.625 1.65625 -12.46875 1.65625 -11.746094 Z M 1.65625 -1.109375 "/></g></g></g><g fill="#9188cb" fill-opacity="1"><g transform="translate(93.932073, 14.308107)"><g><path d="M 1.636719 -1.109375 C 1.636719 -0.40625 1.304688 -0.230469 1.074219 0 L 4.84375 0 C 4.597656 -0.230469 4.277344 -0.40625 4.277344 -1.109375 L 4.277344 -5.195312 L 6.375 -5.195312 L 9.175781 0 L 12.574219 0 C 12.21875 -0.300781 11.921875 -0.492188 11.464844 -1.285156 L 8.890625 -5.757812 C 10.722656 -6.304688 11.621094 -7.960938 11.621094 -8.945312 C 11.621094 -11.902344 9.632812 -12.855469 5.777344 -12.855469 L 1.074219 -12.855469 C 1.339844 -12.625 1.636719 -12.46875 1.636719 -11.746094 Z M 4.277344 -7.042969 L 4.277344 -11.003906 L 5.828125 -11.003906 C 8.066406 -11.003906 8.980469 -10.355469 8.980469 -8.910156 C 8.980469 -7.660156 8.101562 -7.042969 5.882812 -7.042969 Z M 4.277344 -7.042969 "/></g></g></g><g fill="#9188cb" fill-opacity="1"><g transform="translate(106.645508, 14.308107)"><g><path d="M 1.65625 -1.109375 C 1.65625 -0.386719 1.339844 -0.230469 1.089844 0 L 9.984375 0 L 9.984375 -2.464844 C 9.613281 -2.128906 9.667969 -1.847656 8.433594 -1.847656 L 4.296875 -1.847656 L 4.296875 -5.6875 L 7.851562 -5.6875 C 8.664062 -5.6875 8.769531 -5.546875 9.140625 -5.140625 L 9.140625 -8.082031 C 8.855469 -7.765625 8.875 -7.535156 7.851562 -7.535156 L 4.296875 -7.535156 L 4.296875 -11.003906 L 8.136719 -11.003906 C 9.367188 -11.003906 9.316406 -10.722656 9.683594 -10.390625 L 9.683594 -12.855469 L 1.089844 -12.855469 C 1.355469 -12.625 1.65625 -12.46875 1.65625 -11.746094 Z M 1.65625 -1.109375 "/></g></g></g><g fill="#9188cb" fill-opacity="1"><g transform="translate(117.404388, 14.308107)"><g><path d="M 1.65625 -1.109375 C 1.65625 -0.386719 1.339844 -0.230469 1.089844 0 L 9.984375 0 L 9.984375 -2.464844 C 9.613281 -2.128906 9.667969 -1.847656 8.433594 -1.847656 L 4.296875 -1.847656 L 4.296875 -5.6875 L 7.851562 -5.6875 C 8.664062 -5.6875 8.769531 -5.546875 9.140625 -5.140625 L 9.140625 -8.082031 C 8.855469 -7.765625 8.875 -7.535156 7.851562 -7.535156 L 4.296875 -7.535156 L 4.296875 -11.003906 L 8.136719 -11.003906 C 9.367188 -11.003906 9.316406 -10.722656 9.683594 -10.390625 L 9.683594 -12.855469 L 1.089844 -12.855469 C 1.355469 -12.625 1.65625 -12.46875 1.65625 -11.746094 Z M 1.65625 -1.109375 "/></g></g></g><g fill="#9188cb" fill-opacity="1"><g transform="translate(128.163268, 14.308107)"><g><path d="M 1.671875 -1.109375 C 1.671875 -0.40625 1.339844 -0.230469 1.109375 0 L 9.773438 0 L 9.773438 -2.414062 C 9.4375 -2.058594 9.4375 -1.847656 8.152344 -1.847656 L 4.3125 -1.847656 L 4.3125 -11.746094 C 4.3125 -12.46875 4.613281 -12.625 4.878906 -12.855469 L 1.109375 -12.855469 C 1.375 -12.625 1.671875 -12.46875 1.671875 -11.746094 Z M 1.671875 -1.109375 "/></g></g></g><g fill="#9188cb" fill-opacity="1"><g transform="translate(137.953676, 14.308107)"><g><path d="M 0.949219 -0.230469 C 1.128906 -0.335938 1.234375 -0.632812 1.445312 -0.632812 C 1.8125 -0.632812 3.382812 0.265625 5.210938 0.265625 C 8.082031 0.265625 10.035156 -1.304688 10.035156 -3.699219 C 10.035156 -8.082031 3.382812 -6.972656 3.382812 -9.472656 C 3.382812 -10.601562 4.296875 -11.269531 5.476562 -11.269531 C 7.097656 -11.269531 8.628906 -10.070312 9.246094 -9.070312 L 9.246094 -12.714844 C 9.105469 -12.625 9.015625 -12.289062 8.75 -12.289062 C 8.242188 -12.289062 7.203125 -13.117188 5.421875 -13.117188 C 2.675781 -13.117188 0.738281 -11.535156 0.738281 -9.261719 C 0.738281 -4.703125 7.394531 -5.988281 7.394531 -3.273438 C 7.394531 -2.164062 6.445312 -1.585938 5.035156 -1.585938 C 2.90625 -1.585938 1.550781 -2.921875 0.949219 -3.785156 Z M 0.949219 -0.230469 "/></g></g></g></svg>